<?xml version="1.0" encoding="iso-8859-1"?>
<!-- Generator: Adobe Illustrator 19.0.0, SVG Export Plug-In . SVG Version: 6.00 Build 0)  -->
<svg version="1.1" id="Capa_1" xmlns="http://www.w3.org/2000/svg" xmlns:xlink="http://www.w3.org/1999/xlink" x="0px" y="0px"
	 viewBox="0 0 512.143 512.143" style="enable-background:new 0 0 512.143 512.143;" xml:space="preserve">
<linearGradient id="SVGID_1_" gradientUnits="userSpaceOnUse" x1="-43.6461" y1="640.9415" x2="-25.6141" y2="622.9055" gradientTransform="matrix(21.3333 0 0 -21.3333 995.5803 13794.8643)">
	<stop  offset="0" style="stop-color:#369CDC"/>
	<stop  offset="1" style="stop-color:#AA56D0"/>
</linearGradient>
<path style="fill:url(#SVGID_1_);" d="M425.424,281.701c2.133-61.824-10.069-110.251-36.651-143.744
	C343.269,80.485,264.4,56.101,177.914,72.655c-48.384,9.045-94.592,31.744-126.72,62.208C11.365,172.154-5.702,218.255,1.85,268.175
	c2.816,18.944,9.131,36.843,15.232,54.144l3.605,10.304c6.272,17.92,12.587,39.083,11.755,60.053
	c-0.213,5.888,4.373,10.859,10.261,11.072c0.149,0.021,0.299,0.021,0.405,0.021c5.717,0,10.432-4.501,10.667-10.24
	c0.96-24.555-6.016-48.128-12.928-67.883l-3.627-10.389c-5.76-16.384-11.755-33.301-14.272-50.24
	c-8.171-53.931,18.795-92.075,42.88-114.624c29.291-27.755,71.552-48.469,116.032-56.789c78.635-15.04,149.717,6.443,190.187,57.6
	c22.933,28.907,33.621,71.616,32.149,126.763c-3.136-0.256-6.293-0.491-9.493-0.491c-10.453,0-20.544,1.515-30.187,4.075
	c-1.173-39.701-11.221-71.829-31.083-94.677c-45.952-53.163-134.677-59.925-190.464-35.648
	c-28.181,12.331-50.539,35.285-61.355,62.976c-9.707,24.896-9.195,51.925,1.429,76.096c3.349,7.637,7.445,15.083,11.541,22.507
	c7.104,12.843,13.803,24.96,16.384,38.059c3.861,18.837-1.877,37.12-7.381,49.109c-5.077,11.157-11.968,22.08-20.501,32.448
	c-3.733,4.544-3.072,11.264,1.472,15.019c2.005,1.621,4.373,2.411,6.763,2.411c3.072,0,6.144-1.344,8.256-3.904
	c9.664-11.797,17.536-24.277,23.424-37.099c9.749-21.355,12.821-42.88,8.875-62.187c-3.221-16.299-11.051-30.464-18.603-44.16
	c-3.797-6.869-7.573-13.717-10.688-20.779c-8.469-19.243-8.853-39.915-1.109-59.776c8.768-22.443,27.008-41.109,50.027-51.179
	c48.917-21.248,126.187-15.787,165.824,30.059c17.707,20.395,26.304,50.368,26.197,88.555
	c-18.133,8.853-33.707,22.165-45.141,38.613c4.309-32.512-0.939-62.848-15.637-85.76c-19.285-30.037-54.507-45.739-85.76-38.059
	c-26.965,6.613-47.061,30.933-46.763,56.512c0.171,17.451,8.597,31.765,16.768,45.589c2.261,3.883,4.565,7.744,6.613,11.648
	c15.744,29.995,17.771,66.795,5.419,98.389c-9.643,24.64-27.776,45.675-51.029,59.2c-5.099,2.965-6.827,9.493-3.883,14.592
	c2.987,5.099,9.493,6.784,14.592,3.861c27.413-15.957,48.789-40.768,60.181-69.867c14.571-37.291,12.16-80.683-6.421-116.075
	c-2.197-4.224-4.672-8.405-7.125-12.565c-7.04-11.925-13.717-23.189-13.803-34.965c-0.192-15.701,13.227-31.339,30.528-35.563
	c22.165-5.461,48.491,6.699,62.699,28.864c12.757,19.84,17.024,47.061,12.011,76.608c-4.693,27.541-16.363,54.08-27.648,79.723
	l-38.08,86.549c-2.368,5.397,0.085,11.691,5.483,14.059c1.408,0.619,2.859,0.917,4.288,0.917c4.096,0,8-2.368,9.771-6.379
	l38.08-86.549c2.965-6.741,5.973-13.547,8.853-20.437c1.877,63.083,53.675,113.856,117.184,113.856
	c64.683,0,117.333-52.629,117.333-117.333C512.037,340.751,475.237,295.247,425.424,281.701z M394.704,490.81
	c-52.928,0-96-43.072-96-96s43.072-96,96-96s96,43.072,96,96S447.632,490.81,394.704,490.81z"/>
<linearGradient id="SVGID_2_" gradientUnits="userSpaceOnUse" x1="-30.5196" y1="630.481" x2="-25.8126" y2="625.774" gradientTransform="matrix(21.3333 0 0 -21.3333 995.5803 13794.8643)">
	<stop  offset="0" style="stop-color:#369CDC"/>
	<stop  offset="1" style="stop-color:#AA56D0"/>
</linearGradient>
<path style="fill:url(#SVGID_2_);" d="M444.901,344.591c-4.16-4.16-10.923-4.16-15.083,0l-35.115,35.136l-35.136-35.115
	c-4.16-4.16-10.923-4.16-15.083,0c-4.16,4.16-4.16,10.923,0,15.083l35.136,35.115l-35.136,35.115c-4.16,4.16-4.16,10.923,0,15.083
	c2.091,2.091,4.821,3.136,7.552,3.136s5.461-1.045,7.531-3.115l35.136-35.115l35.115,35.115c2.091,2.069,4.821,3.115,7.552,3.115
	c2.731,0,5.461-1.045,7.531-3.115c4.16-4.16,4.16-10.923,0-15.083l-35.115-35.136l35.115-35.115
	C449.082,355.514,449.082,348.772,444.901,344.591z"/>
<linearGradient id="SVGID_3_" gradientUnits="userSpaceOnUse" x1="-41.2152" y1="647.4276" x2="-31.3039" y2="637.5173" gradientTransform="matrix(21.3333 0 0 -21.3333 995.5803 13794.8643)">
	<stop  offset="0" style="stop-color:#369CDC"/>
	<stop  offset="1" style="stop-color:#AA56D0"/>
</linearGradient>
<path style="fill:url(#SVGID_3_);" d="M34.362,95.183c35.925-33.152,87.104-57.984,140.416-68.139
	c96.149-18.304,183.232,8.128,232.896,70.72c2.112,2.645,5.205,4.032,8.363,4.032c2.325,0,4.672-0.747,6.613-2.304
	c4.629-3.648,5.397-10.368,1.728-14.976C369.68,15.567,274.896-13.766,170.768,6.095C113.68,16.975,58.682,43.727,19.92,79.503
	c-4.352,3.989-4.608,10.752-0.619,15.061C23.312,98.917,30.074,99.173,34.362,95.183z"/>
<g>
</g>
<g>
</g>
<g>
</g>
<g>
</g>
<g>
</g>
<g>
</g>
<g>
</g>
<g>
</g>
<g>
</g>
<g>
</g>
<g>
</g>
<g>
</g>
<g>
</g>
<g>
</g>
<g>
</g>
</svg>
